<svg xmlns="http://www.w3.org/2000/svg" xmlns:xlink="http://www.w3.org/1999/xlink" width="1080" zoomAndPan="magnify" viewBox="0 0 810 809.999993" height="1080" preserveAspectRatio="xMidYMid meet" version="1.0"><defs><clipPath id="c2a67f1eb9"><path d="M 168 286.5 L 642 286.5 L 642 523.5 L 168 523.5 Z M 168 286.5 " clip-rule="nonzero"/></clipPath></defs><g clip-path="url(#c2a67f1eb9)"><path fill="#ffc107" d="M 602.5 286.5 L 207.5 286.5 C 185.773438 286.5 168 304.273438 168 326 L 168 484 C 168 505.726562 185.773438 523.5 207.5 523.5 L 602.5 523.5 C 624.226562 523.5 642 505.726562 642 484 L 642 326 C 642 304.273438 624.226562 286.5 602.5 286.5 Z M 602.5 286.5 " fill-opacity="1" fill-rule="nonzero"/></g><path fill="#263238" d="M 445.488281 335.875 L 408.949219 335.875 L 408.949219 465.238281 L 445.488281 465.238281 C 465.238281 465.238281 473.136719 461.289062 478.074219 458.324219 C 484 454.375 486.960938 447.460938 486.960938 440.550781 L 486.960938 362.539062 C 486.960938 353.648438 483.011719 345.75 478.074219 342.789062 C 470.175781 337.851562 467.210938 335.875 445.488281 335.875 Z M 452.398438 437.585938 C 452.398438 443.511719 445.488281 443.511719 439.5625 443.511719 L 439.5625 355.625 C 445.488281 355.625 452.398438 355.625 452.398438 361.550781 Z M 452.398438 437.585938 " fill-opacity="1" fill-rule="nonzero"/><path fill="#263238" d="M 501.773438 335.875 L 501.773438 467.210938 L 529.425781 467.210938 C 529.425781 467.210938 531.398438 458.324219 533.375 460.300781 C 537.324219 460.300781 548.1875 466.226562 555.101562 466.226562 C 562.011719 466.226562 565.960938 466.226562 569.914062 464.25 C 575.835938 460.300781 576.824219 457.335938 576.824219 451.414062 L 576.824219 374.386719 C 576.824219 363.523438 565.960938 356.613281 557.074219 356.613281 C 548.1875 356.613281 539.300781 362.539062 535.351562 365.5 L 535.351562 335.875 Z M 537.324219 377.351562 C 537.324219 373.398438 537.324219 371.425781 541.273438 371.425781 C 543.25 371.425781 545.226562 373.398438 545.226562 377.351562 L 545.226562 442.523438 C 545.226562 446.476562 545.226562 448.449219 541.273438 448.449219 C 539.300781 448.449219 537.324219 446.476562 537.324219 442.523438 Z M 537.324219 377.351562 " fill-opacity="1" fill-rule="nonzero"/><path fill="#263238" d="M 392.164062 467.210938 L 392.164062 335.875 L 348.710938 335.875 L 340.8125 398.085938 L 329.949219 335.875 L 290.449219 335.875 L 290.449219 467.210938 L 319.085938 467.210938 L 319.085938 394.136719 L 331.925781 467.210938 L 351.675781 467.210938 L 364.511719 394.136719 L 364.511719 467.210938 Z M 392.164062 467.210938 " fill-opacity="1" fill-rule="nonzero"/><path fill="#263238" d="M 243.050781 335.875 L 273.664062 335.875 L 273.664062 467.210938 L 243.050781 467.210938 Z M 243.050781 335.875 " fill-opacity="1" fill-rule="nonzero"/></svg>