<svg xmlns="http://www.w3.org/2000/svg" xmlns:xlink="http://www.w3.org/1999/xlink" width="1080" zoomAndPan="magnify" viewBox="0 0 810 809.999993" height="1080" preserveAspectRatio="xMidYMid meet" version="1.0"><path fill="#4e7896" d="M 351.542969 402.371094 C 351.542969 402.371094 335.574219 412.089844 362.648438 414.867188 C 395.277344 419.03125 412.632812 418.339844 448.730469 411.398438 C 448.730469 411.398438 458.449219 417.644531 471.640625 422.503906 C 390.417969 457.207031 287.671875 420.417969 351.542969 402.371094 Z M 341.128906 357.257812 C 341.128906 357.257812 323.773438 370.445312 350.847656 373.222656 C 386.253906 376.695312 414.023438 377.386719 461.921875 367.667969 C 461.921875 367.667969 468.171875 374.609375 478.582031 378.082031 C 380.699219 407.234375 271.007812 380.855469 341.128906 357.257812 Z M 532.734375 436.375 C 532.734375 436.375 544.539062 446.09375 519.546875 453.730469 C 473.03125 467.609375 324.476562 471.773438 282.816406 453.730469 C 268.238281 447.484375 296.007812 438.457031 305.03125 437.070312 C 314.054688 434.988281 318.914062 434.988281 318.914062 434.988281 C 302.949219 423.882812 212.699219 457.894531 273.097656 467.609375 C 439.011719 494.679688 575.773438 455.8125 532.734375 436.375 Z M 359.183594 310.050781 C 359.183594 310.050781 283.515625 328.097656 332.109375 334.34375 C 352.9375 337.121094 393.894531 336.429688 432.078125 333.648438 C 463.316406 330.875 494.558594 325.320312 494.558594 325.320312 C 494.558594 325.320312 483.449219 330.175781 475.8125 335.035156 C 398.753906 355.164062 250.890625 346.140625 293.234375 325.320312 C 329.332031 307.964844 359.183594 310.046875 359.183594 310.046875 Z M 494.554688 385.707031 C 572.304688 345.449219 536.207031 306.582031 511.214844 311.4375 C 504.96875 312.828125 502.191406 314.214844 502.191406 314.214844 C 502.191406 314.214844 504.273438 310.050781 509.132812 308.660156 C 558.421875 291.308594 597.296875 360.71875 493.164062 387.789062 C 493.164062 387.789062 493.859375 387.09375 494.554688 385.707031 Z M 366.816406 495.375 C 441.792969 500.234375 556.324219 492.597656 559.121094 457.199219 C 559.121094 457.199219 553.566406 471.082031 497.335938 481.492188 C 433.46875 493.292969 354.328125 491.902344 307.828125 484.269531 C 307.828125 484.269531 317.546875 492.597656 366.835938 495.375 Z M 366.816406 495.375 " fill-opacity="1" fill-rule="nonzero"/><path fill="#f58219" d="M 447.34375 81 C 447.34375 81 490.382812 124.726562 406.382812 190.667969 C 339.046875 244.113281 391.109375 274.652344 406.382812 309.355469 C 366.8125 273.957031 338.351562 242.722656 357.789062 213.574219 C 386.253906 170.539062 464.707031 149.730469 447.347656 81 Z M 425.140625 280.210938 C 445.273438 303.117188 419.585938 323.9375 419.585938 323.9375 C 419.585938 323.9375 470.957031 297.5625 447.355469 264.941406 C 425.835938 233.707031 409.171875 218.4375 499.417969 166.390625 C 499.417969 166.390625 357.109375 201.792969 425.140625 280.222656 Z M 373.757812 652.929688 L 373.757812 584.90625 C 373.757812 567.554688 364.039062 555.753906 339.742188 555.753906 C 325.859375 555.753906 314.058594 559.226562 303.644531 563.378906 L 307.117188 575.871094 C 314.738281 573.09375 324.472656 570.316406 334.882812 570.316406 C 348.074219 570.316406 354.320312 575.871094 354.320312 586.976562 L 354.320312 596 L 347.378906 596 C 314.058594 596 298.785156 608.492188 298.785156 628.621094 C 298.785156 645.28125 309.199219 654.996094 327.941406 654.996094 C 339.746094 654.996094 348.769531 649.445312 357.101562 642.503906 L 358.488281 652.914062 L 373.761719 652.914062 Z M 354.320312 630.71875 C 347.378906 636.964844 339.742188 640.4375 332.800781 640.4375 C 323.773438 640.4375 318.222656 634.882812 318.222656 625.164062 C 318.222656 615.449219 323.777344 608.507812 345.988281 608.507812 L 354.320312 608.507812 Z M 439.015625 652.929688 L 414.71875 652.929688 L 385.5625 557.835938 L 406.390625 557.835938 L 424.441406 616.140625 L 428.605469 633.492188 C 437.628906 608.507812 444.574219 582.824219 447.351562 557.835938 L 468.175781 557.835938 C 462.621094 589.074219 452.902344 623.082031 439.019531 652.929688 Z M 551.476562 652.929688 L 551.476562 584.90625 C 551.476562 567.554688 541.757812 555.753906 517.460938 555.753906 C 503.574219 555.753906 491.773438 559.226562 481.359375 563.378906 L 484.136719 575.871094 C 492.46875 573.09375 502.1875 570.316406 512.601562 570.316406 C 525.792969 570.316406 532.039062 575.871094 532.039062 586.976562 L 532.039062 596 L 525.097656 596 C 491.777344 596 476.503906 608.492188 476.503906 628.621094 C 476.503906 645.28125 486.222656 654.996094 504.964844 654.996094 C 517.460938 654.996094 526.488281 649.445312 534.816406 642.503906 L 536.203125 652.914062 L 551.476562 652.914062 Z M 532.039062 630.71875 C 525.097656 636.964844 517.460938 640.4375 510.519531 640.4375 C 501.492188 640.4375 495.941406 634.882812 495.941406 625.164062 C 495.941406 615.449219 501.496094 608.507812 523.707031 608.507812 L 532.039062 608.507812 Z M 277.269531 668.894531 C 271.714844 677.226562 263.382812 683.46875 252.972656 686.941406 L 243.941406 675.84375 C 250.882812 671.679688 257.824219 665.429688 260.601562 659.878906 C 263.378906 655.019531 264.074219 648.078125 264.074219 632.113281 L 264.074219 523.835938 L 284.902344 523.835938 L 284.902344 630.726562 C 284.902344 652.242188 282.820312 660.574219 277.277344 668.902344 Z M 277.269531 668.894531 " fill-opacity="1" fill-rule="nonzero"/></svg>