<svg xmlns="http://www.w3.org/2000/svg" xmlns:xlink="http://www.w3.org/1999/xlink" width="1080" zoomAndPan="magnify" viewBox="0 0 810 809.999993" height="1080" preserveAspectRatio="xMidYMid meet" version="1.0"><defs><clipPath id="34352d6c05"><path d="M 291 599.265625 L 405 599.265625 L 405 653.792969 L 291 653.792969 Z M 291 599.265625 " clip-rule="nonzero"/></clipPath></defs><path fill="#753a1a" d="M 364.320312 235.875 C 364.375 235.886719 370.183594 238.425781 376.792969 238.433594 C 380.960938 238.433594 385.507812 237.410156 389 233.96875 C 392.496094 230.539062 394.828125 224.804688 394.820312 215.683594 C 394.820312 214.617188 394.789062 213.5 394.726562 212.339844 L 393.191406 212.429688 C 393.257812 213.5625 393.289062 214.644531 393.289062 215.683594 C 393.289062 224.566406 391.035156 229.824219 387.925781 232.878906 C 384.8125 235.933594 380.726562 236.894531 376.792969 236.898438 C 373.683594 236.898438 370.707031 236.292969 368.515625 235.675781 C 367.417969 235.371094 366.511719 235.066406 365.890625 234.839844 C 365.578125 234.726562 365.339844 234.628906 365.175781 234.5625 C 365.007812 234.503906 364.9375 234.46875 364.9375 234.46875 L 364.320312 235.875 " fill-opacity="1" fill-rule="nonzero"/><path fill="#211a15" d="M 223.253906 209.039062 C 223.253906 209.039062 171.035156 276.9375 197.199219 287.492188 C 217.269531 295.589844 249.449219 279.203125 267.359375 236.792969 L 223.253906 209.039062 " fill-opacity="1" fill-rule="nonzero"/><path fill="#f0aa66" d="M 404.394531 473.402344 L 431.851562 614.699219 L 341.375 614.699219 L 335.242188 423.8125 L 404.394531 473.402344 " fill-opacity="1" fill-rule="nonzero"/><path fill="#753a1a" d="M 362.277344 137.085938 C 374.382812 134.515625 405.332031 135.058594 407.332031 160.816406 C 407.710938 165.6875 404.394531 174.769531 393.078125 174.183594 C 393.078125 174.183594 417.738281 198.203125 394.894531 212.386719 C 394.894531 212.386719 393.890625 244.128906 367.371094 232.855469 C 367.371094 232.855469 282.792969 275.117188 242.019531 236.792969 C 217.324219 213.578125 229.585938 169.796875 241.667969 154.820312 C 276.695312 111.40625 362.277344 137.085938 362.277344 137.085938 " fill-opacity="1" fill-rule="nonzero"/><path fill="#f0aa66" d="M 245.652344 222.601562 L 216.019531 338.527344 L 298.402344 352.390625 L 316.988281 277.421875 L 245.652344 222.601562 " fill-opacity="1" fill-rule="nonzero"/><path fill="#2d5d45" d="M 225.449219 301.648438 L 174.023438 325.164062 L 71.339844 615.449219 L 393.890625 615.449219 L 347.789062 334.058594 L 309.273438 308.1875 L 225.449219 301.648438 " fill-opacity="1" fill-rule="nonzero"/><path fill="#f0aa66" d="M 321.230469 139.039062 C 351.71875 140.523438 382.144531 166.148438 371.542969 214.84375 C 368.679688 228.003906 362.050781 254.132812 359.714844 267.402344 C 357.816406 278.214844 352.617188 299.300781 331.683594 301.226562 C 323.058594 302.019531 316.382812 301.832031 297.085938 299.429688 L 245.652344 222.601562 C 245.652344 222.601562 258.707031 135.984375 321.230469 139.039062 " fill-opacity="1" fill-rule="nonzero"/><path fill="#211a15" d="M 348.988281 239.824219 L 343.925781 264.3125 C 343.839844 264.722656 344.105469 265.132812 344.519531 265.214844 C 344.933594 265.304688 345.339844 265.035156 345.429688 264.621094 L 350.492188 240.132812 C 350.574219 239.722656 350.304688 239.3125 349.890625 239.230469 C 349.476562 239.140625 349.070312 239.410156 348.988281 239.824219 " fill-opacity="1" fill-rule="nonzero"/><path fill="#211a15" d="M 323.925781 240.398438 C 322.960938 242.972656 323.601562 245.589844 325.351562 246.25 C 327.105469 246.902344 329.304688 245.34375 330.269531 242.777344 C 331.234375 240.199219 330.59375 237.582031 328.84375 236.921875 C 327.089844 236.269531 324.882812 237.828125 323.925781 240.398438 " fill-opacity="1" fill-rule="nonzero"/><path fill="#211a15" d="M 353.855469 244.949219 C 352.890625 247.527344 353.53125 250.144531 355.289062 250.796875 C 357.039062 251.457031 359.242188 249.898438 360.199219 247.324219 C 361.164062 244.753906 360.523438 242.136719 358.773438 241.476562 C 357.019531 240.824219 354.820312 242.375 353.855469 244.949219 " fill-opacity="1" fill-rule="nonzero"/><path fill="#211a15" d="M 311.25 300.328125 L 283.601562 295.601562 C 283.183594 295.53125 282.789062 295.8125 282.714844 296.230469 C 282.644531 296.644531 282.925781 297.046875 283.34375 297.113281 L 310.992188 301.839844 C 311.414062 301.910156 311.808594 301.628906 311.878906 301.210938 C 311.953125 300.796875 311.671875 300.394531 311.25 300.328125 " fill-opacity="1" fill-rule="nonzero"/><path fill="#211a15" d="M 313.402344 269.15625 C 313.414062 269.230469 313.765625 271.398438 315.433594 273.605469 C 317.085938 275.824219 320.140625 278.039062 325.230469 278.023438 C 325.847656 278.023438 326.496094 277.992188 327.171875 277.925781 C 327.589844 277.882812 327.902344 277.511719 327.859375 277.085938 C 327.820312 276.667969 327.441406 276.355469 327.023438 276.398438 C 326.394531 276.457031 325.792969 276.488281 325.230469 276.488281 C 320.582031 276.476562 318.105469 274.578125 316.652344 272.683594 C 315.933594 271.734375 315.496094 270.773438 315.242188 270.0625 C 315.109375 269.703125 315.023438 269.410156 314.976562 269.203125 L 314.921875 268.976562 L 314.917969 268.921875 L 314.910156 268.910156 C 314.84375 268.496094 314.449219 268.210938 314.03125 268.277344 C 313.617188 268.347656 313.328125 268.742188 313.402344 269.15625 " fill-opacity="1" fill-rule="nonzero"/><path fill="#f0aa66" d="M 113.574219 640.925781 L 183.097656 440.523438 L 92 418.960938 C 92 418.960938 14.921875 573.128906 30.550781 607.632812 L 113.574219 640.925781 " fill-opacity="1" fill-rule="nonzero"/><path fill="#f0aa66" d="M 450.003906 598.136719 C 450.003906 598.136719 474.988281 536.941406 547.160156 536.3125 C 563.5 536.167969 601.386719 542.046875 604.386719 578.652344 C 605.332031 590.195312 603.773438 608.835938 592.148438 604.5 C 592.148438 604.5 584.636719 611.695312 579.78125 604.914062 C 579.78125 604.914062 565.902344 613.171875 564.859375 596.347656 C 564.859375 596.347656 563.589844 603.796875 557.457031 602.492188 C 551.6875 601.265625 549.589844 598.597656 541.613281 577.957031 C 541.613281 577.957031 532.414062 580.554688 528.074219 585.242188 C 528.074219 585.242188 550.632812 595.128906 548.203125 603.976562 C 548.203125 603.976562 545.429688 610.800781 510.730469 607.824219 L 450.003906 598.136719 " fill-opacity="1" fill-rule="nonzero"/><path fill="#211a15" d="M 528.351562 584.527344 C 528.351562 584.523438 528.09375 584.425781 527.625 584.234375 C 525.996094 583.574219 521.851562 581.828125 517.875 579.574219 C 515.886719 578.453125 513.941406 577.203125 512.375 575.921875 C 510.8125 574.644531 509.644531 573.320312 509.183594 572.152344 C 509.023438 571.757812 508.9375 571.324219 508.9375 570.863281 C 508.933594 569.359375 509.84375 567.527344 511.628906 566.085938 C 513.414062 564.640625 516.046875 563.585938 519.425781 563.582031 C 521.847656 563.582031 524.644531 564.125 527.777344 565.472656 C 529.8125 566.339844 532.441406 568.214844 534.875 570.546875 C 537.304688 572.871094 539.558594 575.65625 540.929688 578.304688 L 542.289062 577.601562 C 540.808594 574.738281 538.460938 571.863281 535.933594 569.4375 C 533.394531 567.019531 530.6875 565.054688 528.382812 564.066406 C 525.082031 562.644531 522.074219 562.046875 519.425781 562.046875 C 515.730469 562.046875 512.734375 563.214844 510.664062 564.890625 C 508.597656 566.570312 507.417969 568.761719 507.40625 570.863281 C 507.40625 571.503906 507.523438 572.140625 507.765625 572.734375 C 508.5 574.523438 510.136719 576.152344 512.144531 577.6875 C 518.15625 582.269531 527.769531 585.941406 527.804688 585.953125 L 528.351562 584.527344 " fill-opacity="1" fill-rule="nonzero"/><path fill="#211a15" d="M 544.0625 548.636719 L 544.109375 548.652344 C 544.667969 548.921875 549.84375 551.539062 554.855469 557.566406 C 559.871094 563.605469 564.746094 573.03125 564.75 587.074219 C 564.75 589.9375 564.546875 592.984375 564.097656 596.238281 L 565.621094 596.449219 C 566.074219 593.128906 566.285156 590.007812 566.285156 587.074219 C 566.285156 572.207031 560.917969 562.21875 555.535156 555.992188 C 550.148438 549.765625 544.777344 547.273438 544.710938 547.238281 L 544.070312 548.636719 " fill-opacity="1" fill-rule="nonzero"/><path fill="#211a15" d="M 569.757812 551.359375 L 569.78125 551.382812 C 570.335938 551.953125 580.695312 562.777344 580.703125 587.039062 C 580.703125 592.308594 580.210938 598.210938 579.023438 604.78125 L 580.535156 605.050781 C 581.738281 598.394531 582.234375 592.398438 582.234375 587.039062 C 582.242188 561.53125 570.9375 550.359375 570.832031 550.265625 L 569.757812 551.359375 " fill-opacity="1" fill-rule="nonzero"/><path fill="#211a15" d="M 584.917969 553.941406 L 584.929688 553.960938 C 585.289062 554.457031 592 563.921875 592 581.269531 C 592 587.828125 591.039062 595.515625 588.417969 604.285156 L 589.886719 604.722656 C 592.550781 595.820312 593.53125 587.976562 593.53125 581.269531 C 593.53125 562.9375 586.214844 553.109375 586.148438 553.019531 L 584.917969 553.941406 " fill-opacity="1" fill-rule="nonzero"/><path fill="#211a15" d="M 686.8125 596.851562 L 437.378906 596.851562 L 437.378906 614.699219 L 690.855469 614.699219 L 686.8125 596.851562 " fill-opacity="1" fill-rule="nonzero"/><path fill="#211a15" d="M 681.550781 596.851562 L 782.625 414.914062 L 795.15625 422.601562 L 690.855469 614.699219 L 681.550781 596.851562 " fill-opacity="1" fill-rule="nonzero"/><path fill="#2d5d45" d="M 174.023438 325.164062 C 120.519531 348.339844 84.183594 391.238281 42.304688 502.515625 C 42.304688 502.515625 88.585938 522.457031 176.988281 519.230469 C 176.988281 519.230469 235.085938 298.71875 174.023438 325.164062 " fill-opacity="1" fill-rule="nonzero"/><path fill="#2d5d45" d="M 347.789062 334.058594 C 314.304688 307.851562 325.253906 396.742188 326.152344 512.101562 C 326.152344 512.101562 396.707031 512.53125 415.214844 485.605469 C 415.214844 485.605469 396 371.804688 347.789062 334.058594 " fill-opacity="1" fill-rule="nonzero"/><path fill="#753a1a" d="M 291.8125 211.113281 C 304.386719 203.5625 304.351562 190.660156 304.351562 190.660156 C 306.472656 206.027344 335.359375 216.246094 344.675781 192.019531 C 344.675781 192.019531 358.667969 223.480469 382.578125 212.597656 C 397 206.03125 408.539062 179.6875 368.777344 150.742188 C 342.132812 131.339844 270.046875 97.269531 246.746094 200.605469 L 270.945312 215.824219 C 270.945312 215.824219 282.328125 216.808594 291.8125 211.113281 " fill-opacity="1" fill-rule="nonzero"/><path fill="#f0aa66" d="M 225.449219 301.648438 C 225.449219 301.648438 248.160156 323.535156 291.53125 322.199219 C 297.179688 322.027344 307.296875 319.503906 309.273438 308.1875 L 267.359375 298.621094 L 225.449219 301.648438 " fill-opacity="1" fill-rule="nonzero"/><path fill="#211a15" d="M 376.804688 506.390625 L 365.183594 435.484375 L 363.675781 435.730469 L 375.289062 506.644531 " fill-opacity="1" fill-rule="nonzero"/><path fill="#211a15" d="M 156.390625 519.847656 L 183.816406 444.292969 L 182.375 443.765625 L 154.949219 519.320312 " fill-opacity="1" fill-rule="nonzero"/><path fill="#e15a1c" d="M 362.277344 137.085938 C 362.277344 137.085938 260.546875 150.007812 242.019531 236.792969 C 242.019531 236.792969 220.433594 220.300781 216.1875 186.371094 C 213.054688 161.320312 227.710938 125.277344 276.726562 110.230469 C 313.417969 98.96875 349.734375 107.621094 362.277344 137.085938 " fill-opacity="1" fill-rule="nonzero"/><path fill="#f0aa66" d="M 270.945312 215.824219 C 270.945312 215.824219 271.492188 189.265625 251.3125 193.667969 C 244.113281 195.238281 233.046875 207.890625 245.652344 222.601562 L 270.945312 215.824219 " fill-opacity="1" fill-rule="nonzero"/><path fill="#211a15" d="M 262.722656 222.3125 L 253.929688 193.265625 C 253.808594 192.859375 253.378906 192.632812 252.976562 192.75 C 252.570312 192.878906 252.339844 193.304688 252.460938 193.710938 L 261.253906 222.757812 C 261.378906 223.15625 261.804688 223.390625 262.210938 223.265625 C 262.613281 223.144531 262.847656 222.714844 262.722656 222.3125 " fill-opacity="1" fill-rule="nonzero"/><path fill="#753a1a" d="M 355.785156 126.082031 C 355.785156 126.082031 345.519531 125.734375 330 129.542969 L 324.890625 120.109375 C 324.890625 120.109375 337.625 116.785156 347.160156 117.582031 C 347.160156 117.582031 352.765625 121.785156 355.785156 126.082031 " fill-opacity="1" fill-rule="nonzero"/><path fill="#211a15" d="M 565.171875 579.347656 C 565.152344 579.347656 564.816406 579.308594 564.285156 579.308594 C 563.230469 579.316406 561.398438 579.4375 559.679688 580.273438 C 558.816406 580.699219 557.988281 581.3125 557.34375 582.191406 C 556.695312 583.066406 556.246094 584.199219 556.125 585.582031 C 556.101562 585.859375 556.089844 586.144531 556.089844 586.4375 C 556.089844 588.421875 556.664062 590.738281 558.066406 592.664062 C 559.457031 594.589844 561.734375 596.082031 564.917969 596.273438 L 565.015625 594.746094 C 562.261719 594.5625 560.480469 593.359375 559.300781 591.765625 C 558.132812 590.164062 557.617188 588.128906 557.625 586.4375 C 557.625 586.1875 557.636719 585.949219 557.652344 585.71875 C 557.753906 584.574219 558.101562 583.742188 558.574219 583.097656 C 559.28125 582.136719 560.332031 581.570312 561.414062 581.238281 C 562.5 580.914062 563.59375 580.84375 564.285156 580.84375 C 564.519531 580.84375 564.703125 580.851562 564.828125 580.855469 L 564.972656 580.867188 L 565.007812 580.875 L 565.171875 579.347656 " fill-opacity="1" fill-rule="nonzero"/><path fill="#211a15" d="M 581.628906 584.371094 C 581.59375 584.367188 580.808594 584.199219 579.71875 584.199219 C 578.714844 584.199219 577.433594 584.335938 576.238281 584.941406 C 575.046875 585.539062 573.96875 586.671875 573.554688 588.433594 C 573.335938 589.351562 573.171875 590.535156 573.171875 591.816406 C 573.179688 593.628906 573.484375 595.640625 574.492188 597.292969 C 574.996094 598.113281 575.683594 598.839844 576.59375 599.347656 C 577.496094 599.855469 578.601562 600.144531 579.894531 600.136719 C 580.257812 600.136719 580.640625 600.121094 581.042969 600.074219 L 580.871094 598.550781 C 580.523438 598.585938 580.199219 598.605469 579.894531 598.605469 C 578.820312 598.605469 578 598.378906 577.34375 598.011719 C 576.367188 597.460938 575.71875 596.5625 575.292969 595.453125 C 574.875 594.347656 574.707031 593.039062 574.707031 591.816406 C 574.707031 590.660156 574.855469 589.578125 575.042969 588.800781 C 575.382812 587.453125 576.078125 586.761719 576.941406 586.308594 C 577.804688 585.863281 578.859375 585.726562 579.71875 585.730469 C 580.179688 585.730469 580.589844 585.769531 580.875 585.804688 C 581.019531 585.820312 581.132812 585.839844 581.207031 585.851562 L 581.289062 585.871094 L 581.308594 585.875 L 581.628906 584.371094 " fill-opacity="1" fill-rule="nonzero"/><path fill="#211a15" d="M 592.316406 586.042969 C 592.28125 586.03125 591.519531 585.859375 590.484375 585.859375 C 589.285156 585.863281 587.667969 586.074219 586.445312 587.234375 C 585.867188 587.8125 585.5 588.636719 585.226562 589.613281 C 584.949219 590.589844 584.800781 591.722656 584.800781 592.871094 C 584.800781 594.382812 585.058594 595.921875 585.746094 597.171875 C 586.09375 597.796875 586.558594 598.351562 587.171875 598.75 C 587.777344 599.144531 588.523438 599.371094 589.351562 599.367188 C 589.667969 599.367188 589.992188 599.335938 590.335938 599.277344 L 590.058594 597.765625 C 589.800781 597.8125 589.566406 597.832031 589.351562 597.832031 C 588.789062 597.832031 588.371094 597.695312 588.003906 597.460938 C 587.464844 597.113281 587.039062 596.496094 586.753906 595.675781 C 586.464844 594.867188 586.332031 593.867188 586.332031 592.871094 C 586.332031 591.859375 586.46875 590.847656 586.699219 590.019531 C 586.917969 589.199219 587.265625 588.558594 587.507812 588.34375 C 588.25 587.613281 589.472656 587.386719 590.484375 587.390625 C 590.914062 587.390625 591.296875 587.425781 591.566406 587.46875 L 591.878906 587.515625 L 591.964844 587.527344 L 591.980469 587.535156 L 592.316406 586.042969 " fill-opacity="1" fill-rule="nonzero"/><path fill="#211a15" d="M 604.90625 588.15625 C 604.851562 588.140625 603.710938 587.671875 602.210938 587.667969 C 601.539062 587.667969 600.796875 587.769531 600.0625 588.0625 C 599.324219 588.355469 598.601562 588.863281 598.007812 589.632812 C 597.378906 590.464844 596.816406 591.636719 596.394531 592.972656 C 595.96875 594.308594 595.695312 595.796875 595.6875 597.210938 C 595.695312 598.539062 595.933594 599.832031 596.640625 600.863281 C 597.34375 601.90625 598.574219 602.570312 600.140625 602.558594 C 600.480469 602.558594 600.835938 602.527344 601.210938 602.472656 L 600.984375 600.953125 C 600.671875 601 600.390625 601.023438 600.140625 601.023438 C 598.964844 601.007812 598.355469 600.625 597.898438 599.996094 C 597.457031 599.355469 597.222656 598.351562 597.222656 597.210938 C 597.222656 596 597.472656 594.644531 597.851562 593.433594 C 598.234375 592.230469 598.753906 591.171875 599.222656 590.566406 C 599.648438 590.019531 600.121094 589.691406 600.636719 589.480469 C 601.144531 589.277344 601.691406 589.199219 602.210938 589.199219 C 602.792969 589.199219 603.335938 589.300781 603.726562 589.398438 C 603.925781 589.445312 604.082031 589.492188 604.1875 589.53125 L 604.300781 589.570312 L 604.332031 589.582031 L 604.90625 588.15625 " fill-opacity="1" fill-rule="nonzero"/><g clip-path="url(#34352d6c05)"><path fill="#211a15" d="M 387.363281 652.371094 C 393.785156 651.589844 410.292969 648.328125 402.207031 631.148438 C 393.238281 612.089844 367.980469 591.1875 322.972656 602.511719 C 311.886719 605.296875 276.257812 622.429688 298.175781 640.925781 C 312.066406 652.640625 357.128906 656.074219 387.363281 652.371094 " fill-opacity="1" fill-rule="nonzero"/></g><path fill="#f0aa66" d="M 105.476562 541.867188 C 163.511719 539.847656 347.789062 541.691406 374.988281 579.058594 C 380.390625 586.488281 401.105469 617.449219 377.414062 615.71875 C 368.285156 615.046875 361.738281 602.617188 355.863281 594.394531 C 351.808594 588.722656 342.300781 584.085938 329.710938 583.640625 C 329.710938 583.640625 357.0625 596.722656 355.863281 630.375 C 355.691406 635.109375 353.460938 645.550781 340.21875 641.050781 C 340.21875 641.050781 333.753906 653.769531 318.121094 641.753906 C 318.121094 641.753906 313 654.257812 287.394531 641.050781 C 287.394531 641.050781 265.265625 633.292969 233.222656 637.546875 C 182.453125 644.285156 52.394531 660.453125 30.550781 607.632812 C 21.027344 584.601562 51.15625 543.757812 105.476562 541.867188 " fill-opacity="1" fill-rule="nonzero"/><path fill="#211a15" d="M 332.09375 583.4375 C 332.023438 583.390625 320.015625 575.832031 296.988281 572.589844 L 296.773438 574.109375 C 308.160156 575.710938 316.804688 578.375 322.589844 580.640625 C 325.484375 581.773438 327.667969 582.804688 329.117188 583.546875 C 329.84375 583.917969 330.386719 584.214844 330.746094 584.421875 C 330.925781 584.527344 331.066406 584.605469 331.148438 584.660156 L 331.273438 584.730469 L 332.09375 583.4375 " fill-opacity="1" fill-rule="nonzero"/><path fill="#211a15" d="M 283.738281 590.597656 C 283.746094 590.597656 283.957031 590.636719 284.367188 590.726562 C 287.449219 591.410156 301.445312 594.8125 314.613281 602.46875 C 321.1875 606.296875 327.554688 611.183594 332.25 617.300781 C 336.953125 623.410156 340.003906 630.730469 340.003906 639.53125 C 340.003906 640.480469 339.964844 641.445312 339.894531 642.433594 L 341.421875 642.550781 C 341.5 641.523438 341.535156 640.519531 341.535156 639.53125 C 341.542969 629.761719 337.898438 621.671875 332.472656 615.113281 C 324.339844 605.277344 312.238281 598.800781 302.175781 594.753906 C 292.113281 590.703125 284.074219 589.097656 284.046875 589.09375 L 283.746094 590.597656 " fill-opacity="1" fill-rule="nonzero"/><path fill="#211a15" d="M 266.792969 610.542969 C 266.792969 610.542969 266.988281 610.578125 267.363281 610.640625 C 270.160156 611.125 282.867188 613.484375 294.796875 618.3125 C 300.769531 620.71875 306.539062 623.75 310.773438 627.417969 C 315.007812 631.09375 317.671875 635.34375 317.671875 640.277344 C 317.671875 641.097656 317.601562 641.933594 317.445312 642.800781 L 318.953125 643.0625 C 319.121094 642.117188 319.207031 641.1875 319.207031 640.277344 C 319.199219 634.378906 315.792969 629.472656 310.867188 625.5 C 303.464844 619.523438 292.53125 615.441406 283.429688 612.8125 C 274.324219 610.183594 267.050781 609.035156 267.035156 609.027344 L 266.792969 610.542969 " fill-opacity="1" fill-rule="nonzero"/><path fill="#211a15" d="M 305.308594 621.566406 C 305.273438 621.582031 303.714844 622.105469 302.105469 623.195312 C 301.300781 623.746094 300.480469 624.441406 299.847656 625.316406 C 299.207031 626.191406 298.75 627.261719 298.757812 628.496094 C 298.75 629.851562 299.300781 631.335938 300.542969 632.90625 C 304.351562 637.722656 308.53125 639.816406 312.054688 639.824219 C 314.785156 639.828125 317.113281 638.511719 318.289062 636.308594 L 316.941406 635.582031 C 316.03125 637.257812 314.3125 638.277344 312.054688 638.289062 C 309.160156 638.296875 305.351562 636.523438 301.746094 631.953125 C 300.65625 630.570312 300.289062 629.4375 300.289062 628.496094 C 300.289062 627.640625 300.589844 626.898438 301.082031 626.214844 C 301.824219 625.195312 303.007812 624.367188 304.007812 623.828125 C 304.511719 623.554688 304.96875 623.351562 305.292969 623.210938 C 305.453125 623.148438 305.585938 623.097656 305.675781 623.0625 L 305.800781 623.019531 L 305.308594 621.566406 " fill-opacity="1" fill-rule="nonzero"/><path fill="#211a15" d="M 148.113281 540.570312 L 106.6875 541.058594 L 106.707031 542.589844 L 148.132812 542.105469 " fill-opacity="1" fill-rule="nonzero"/><path fill="#753a1a" d="M 394.011719 177.535156 C 394.023438 177.535156 394.210938 177.546875 394.527344 177.546875 C 395.777344 177.542969 399.097656 177.394531 402.207031 175.738281 C 403.757812 174.90625 405.261719 173.691406 406.355469 171.925781 C 407.464844 170.15625 408.152344 167.855469 408.152344 164.933594 C 408.148438 161.09375 406.980469 156.167969 404.019531 149.785156 L 402.632812 150.425781 C 405.523438 156.679688 406.621094 161.410156 406.621094 164.933594 C 406.613281 167.621094 405.996094 169.605469 405.058594 171.109375 C 403.65625 173.363281 401.488281 174.589844 399.402344 175.261719 C 397.324219 175.925781 395.367188 176.015625 394.527344 176.015625 C 394.382812 176.015625 394.277344 176.007812 394.203125 176.007812 L 394.101562 176.003906 L 394.011719 177.535156 " fill-opacity="1" fill-rule="nonzero"/><path fill="#753a1a" d="M 303.585938 190.714844 C 303.585938 190.714844 303.597656 190.816406 303.601562 191.03125 C 303.609375 191.25 303.621094 191.566406 303.621094 191.96875 C 303.621094 194.523438 303.265625 200.546875 300.476562 205.828125 C 299.078125 208.46875 297.089844 210.925781 294.234375 212.730469 C 291.378906 214.53125 287.640625 215.695312 282.679688 215.699219 C 279.679688 215.699219 276.234375 215.269531 272.28125 214.285156 L 271.910156 215.773438 C 275.960938 216.777344 279.527344 217.234375 282.679688 217.234375 C 287.878906 217.234375 291.933594 215.992188 295.054688 214.023438 C 299.738281 211.0625 302.261719 206.515625 303.609375 202.257812 C 304.957031 197.992188 305.152344 193.984375 305.152344 191.96875 C 305.152344 191.117188 305.117188 190.621094 305.117188 190.605469 L 303.585938 190.714844 " fill-opacity="1" fill-rule="nonzero"/><path fill="#753a1a" d="M 394.222656 215.777344 C 394.289062 215.753906 397.078125 215.09375 399.90625 212.867188 C 402.738281 210.652344 405.597656 206.769531 405.585938 200.582031 C 405.585938 196.878906 404.578125 192.367188 402.039062 186.875 L 400.644531 187.515625 C 403.121094 192.867188 404.050781 197.160156 404.050781 200.582031 C 404.039062 206.289062 401.511719 209.632812 398.960938 211.664062 C 397.679688 212.667969 396.394531 213.335938 395.433594 213.734375 C 394.953125 213.9375 394.550781 214.078125 394.28125 214.167969 L 393.964844 214.257812 L 393.890625 214.273438 L 393.875 214.28125 L 394.222656 215.777344 " fill-opacity="1" fill-rule="nonzero"/><path fill="#211a15" d="M 330.820312 613.941406 C 330.765625 613.953125 328.808594 614.203125 326.789062 615.40625 C 325.777344 616.011719 324.746094 616.855469 323.96875 618.042969 C 323.183594 619.230469 322.667969 620.757812 322.667969 622.632812 C 322.667969 623.636719 322.816406 624.746094 323.140625 625.96875 C 323.609375 627.710938 324.8125 629.785156 326.652344 631.484375 C 328.488281 633.175781 331 634.480469 334.011719 634.480469 C 335.816406 634.480469 337.78125 634.007812 339.851562 632.917969 L 339.132812 631.558594 C 337.257812 632.550781 335.546875 632.945312 334.011719 632.945312 C 331.453125 632.945312 329.316406 631.851562 327.6875 630.351562 C 326.0625 628.867188 324.984375 626.96875 324.621094 625.574219 C 324.328125 624.464844 324.199219 623.488281 324.199219 622.632812 C 324.207031 621.03125 324.625 619.835938 325.25 618.886719 C 326.179688 617.46875 327.617188 616.59375 328.84375 616.089844 C 329.460938 615.839844 330.011719 615.675781 330.40625 615.585938 C 330.609375 615.539062 330.765625 615.507812 330.875 615.484375 L 330.992188 615.46875 L 331.023438 615.460938 L 330.820312 613.941406 " fill-opacity="1" fill-rule="nonzero"/><path fill="#211a15" d="M 351.875 607.386719 C 351.824219 607.398438 349.675781 607.667969 347.453125 608.90625 C 346.34375 609.53125 345.214844 610.398438 344.355469 611.621094 C 343.488281 612.84375 342.914062 614.425781 342.917969 616.359375 L 342.917969 616.582031 C 342.972656 618.804688 343.609375 622.015625 345.230469 624.769531 C 346.039062 626.140625 347.113281 627.398438 348.496094 628.320312 C 349.878906 629.246094 351.585938 629.8125 353.582031 629.808594 C 354.347656 629.808594 355.15625 629.722656 356.011719 629.550781 L 355.707031 628.046875 C 354.945312 628.203125 354.234375 628.273438 353.582031 628.273438 C 351.867188 628.273438 350.496094 627.808594 349.347656 627.039062 C 347.621094 625.902344 346.398438 624.046875 345.613281 622.074219 C 344.828125 620.105469 344.484375 618.023438 344.453125 616.546875 L 344.453125 616.359375 C 344.453125 614.722656 344.917969 613.492188 345.609375 612.507812 C 346.644531 611.027344 348.257812 610.113281 349.628906 609.578125 C 350.316406 609.308594 350.941406 609.140625 351.382812 609.039062 C 351.605469 608.992188 351.785156 608.957031 351.902344 608.933594 L 352.035156 608.90625 L 352.078125 608.90625 L 351.875 607.386719 " fill-opacity="1" fill-rule="nonzero"/><path fill="#211a15" d="M 381.0625 588.421875 C 381.019531 588.441406 379.089844 589.121094 377.113281 590.558594 C 376.132812 591.285156 375.125 592.195312 374.359375 593.339844 C 373.585938 594.472656 373.054688 595.855469 373.054688 597.429688 C 373.054688 598.097656 373.148438 598.796875 373.351562 599.515625 C 373.800781 601.097656 374.945312 603.164062 376.648438 604.914062 C 378.347656 606.648438 380.644531 608.074219 383.355469 608.082031 C 385.039062 608.085938 386.84375 607.519531 388.652344 606.210938 L 387.757812 604.964844 C 386.152344 606.117188 384.691406 606.546875 383.355469 606.546875 C 381.210938 606.554688 379.265625 605.398438 377.742188 603.839844 C 376.234375 602.292969 375.175781 600.359375 374.828125 599.101562 C 374.660156 598.507812 374.585938 597.953125 374.585938 597.429688 C 374.585938 596.203125 374.996094 595.144531 375.628906 594.195312 C 376.574219 592.78125 378.066406 591.679688 379.332031 590.949219 C 379.960938 590.585938 380.527344 590.308594 380.9375 590.128906 C 381.140625 590.039062 381.300781 589.972656 381.414062 589.925781 L 381.542969 589.882812 L 381.570312 589.863281 L 381.0625 588.421875 " fill-opacity="1" fill-rule="nonzero"/><path fill="#211a15" d="M 390.761719 616.214844 L 728.945312 616.214844 L 728.945312 614.683594 L 390.761719 614.683594 Z M 390.761719 616.214844 " fill-opacity="1" fill-rule="nonzero"/><path fill="#211a15" d="M 210.03125 309.046875 C 210.09375 309.082031 242.597656 337.523438 281.511719 337.550781 C 288.945312 337.550781 296.605469 336.503906 304.308594 334.023438 C 308.808594 332.574219 312.539062 330.25 315.144531 326.972656 C 317.742188 323.699219 319.1875 319.480469 319.1875 314.363281 L 319.1875 314.339844 C 319.195312 313.921875 318.859375 313.566406 318.433594 313.5625 C 318.007812 313.554688 317.660156 313.890625 317.652344 314.316406 L 317.652344 314.363281 C 317.648438 319.199219 316.3125 323.03125 313.941406 326.023438 C 311.570312 329.011719 308.125 331.179688 303.839844 332.5625 C 296.300781 334.996094 288.800781 336.019531 281.511719 336.019531 C 262.433594 336.019531 244.792969 329 231.941406 321.953125 C 225.507812 318.433594 220.277344 314.910156 216.652344 312.273438 C 214.84375 310.949219 213.4375 309.855469 212.484375 309.085938 C 212.007812 308.703125 211.640625 308.398438 211.402344 308.195312 C 211.15625 307.992188 211.035156 307.890625 211.035156 307.890625 C 210.71875 307.609375 210.234375 307.644531 209.957031 307.960938 C 209.675781 308.277344 209.710938 308.765625 210.03125 309.046875 " fill-opacity="1" fill-rule="nonzero"/><path fill="#211a15" d="M 50.144531 482.546875 C 50.171875 482.550781 111.808594 500.03125 162.523438 500.035156 C 162.699219 500.035156 162.871094 500.035156 163.046875 500.035156 L 163.046875 498.503906 C 162.871094 498.503906 162.699219 498.503906 162.523438 498.503906 C 137.335938 498.503906 109.328125 494.148438 87.632812 489.789062 C 76.785156 487.605469 67.515625 485.425781 60.957031 483.792969 C 57.671875 482.96875 55.074219 482.292969 53.292969 481.8125 C 51.515625 481.339844 50.5625 481.070312 50.558594 481.070312 L 50.144531 482.546875 " fill-opacity="1" fill-rule="nonzero"/><path fill="#211a15" d="M 372.777344 486.222656 C 372.800781 486.21875 379.421875 484.628906 387.578125 481.339844 C 395.738281 478.046875 405.441406 473.070312 411.664062 466.144531 L 410.527344 465.121094 C 404.597656 471.738281 395.054688 476.679688 387.003906 479.921875 C 382.980469 481.542969 379.324219 482.75 376.683594 483.546875 C 375.359375 483.941406 374.292969 484.242188 373.558594 484.4375 C 372.820312 484.636719 372.417969 484.730469 372.417969 484.730469 L 372.777344 486.222656 " fill-opacity="1" fill-rule="nonzero"/><path fill="#211a15" d="M 144.394531 342.339844 C 148.273438 340.511719 152.820312 339.46875 157.535156 339.46875 C 165.675781 339.476562 174.28125 342.558594 180.882812 349.980469 C 187.484375 357.402344 192.113281 369.222656 192.113281 386.808594 C 192.113281 389.929688 191.96875 393.230469 191.664062 396.71875 L 193.191406 396.855469 C 193.503906 393.320312 193.648438 389.980469 193.648438 386.808594 C 193.652344 368.964844 188.9375 356.734375 182.03125 348.964844 C 175.125 341.1875 166.058594 337.9375 157.535156 337.9375 C 152.597656 337.9375 147.832031 339.027344 143.742188 340.953125 L 144.394531 342.339844 " fill-opacity="1" fill-rule="nonzero"/><path fill="#211a15" d="M 371.480469 215.609375 C 371.496094 215.609375 372.070312 215.664062 373.046875 215.664062 C 375.796875 215.660156 381.734375 215.269531 387.074219 212.125 C 389.742188 210.546875 392.257812 208.273438 394.089844 205.019531 C 395.929688 201.773438 397.074219 197.574219 397.074219 192.183594 C 397.074219 190.59375 396.972656 188.90625 396.769531 187.109375 C 396.714844 186.683594 396.335938 186.382812 395.917969 186.433594 C 395.492188 186.480469 395.191406 186.863281 395.238281 187.28125 C 395.445312 189.03125 395.539062 190.660156 395.539062 192.183594 C 395.539062 197.359375 394.449219 201.277344 392.753906 204.269531 C 390.226562 208.75 386.320312 211.203125 382.507812 212.554688 C 378.695312 213.910156 375 214.128906 373.046875 214.128906 C 372.585938 214.128906 372.222656 214.117188 371.976562 214.105469 L 371.699219 214.089844 L 371.609375 214.082031 C 371.191406 214.046875 370.820312 214.359375 370.777344 214.777344 C 370.742188 215.203125 371.054688 215.574219 371.480469 215.609375 " fill-opacity="1" fill-rule="nonzero"/><path fill="#211a15" d="M 345.339844 191.636719 L 337.097656 177.253906 C 336.886719 176.890625 336.421875 176.765625 336.054688 176.972656 C 335.683594 177.183594 335.558594 177.652344 335.765625 178.023438 L 344.007812 192.40625 C 344.21875 192.769531 344.6875 192.894531 345.058594 192.6875 C 345.421875 192.476562 345.546875 192.007812 345.339844 191.636719 " fill-opacity="1" fill-rule="nonzero"/><path fill="#211a15" d="M 305.023438 192.03125 L 305.152344 181.8125 C 305.160156 181.386719 304.816406 181.042969 304.394531 181.035156 C 303.972656 181.027344 303.625 181.371094 303.621094 181.796875 L 303.488281 192.015625 C 303.480469 192.433594 303.824219 192.78125 304.25 192.789062 C 304.675781 192.792969 305.015625 192.457031 305.023438 192.03125 " fill-opacity="1" fill-rule="nonzero"/><path fill="#211a15" d="M 393.148438 173.414062 C 393.148438 173.414062 393 173.402344 392.707031 173.367188 C 390.640625 173.109375 381.769531 171.683594 374.675781 166.304688 C 374.339844 166.046875 373.863281 166.113281 373.605469 166.453125 C 373.347656 166.789062 373.417969 167.269531 373.753906 167.527344 C 382.300781 173.992188 392.941406 174.929688 393.007812 174.941406 C 393.429688 174.984375 393.800781 174.671875 393.84375 174.253906 C 393.878906 173.828125 393.570312 173.457031 393.148438 173.421875 " fill-opacity="1" fill-rule="nonzero"/><path fill="#f0aa66" d="M 387.859375 636.253906 C 387.8125 636.15625 376.550781 615.546875 345.824219 603.433594 L 345.261719 604.859375 C 360.402344 610.824219 370.722656 618.882812 377.265625 625.433594 C 380.527344 628.710938 382.847656 631.609375 384.351562 633.6875 C 385.097656 634.726562 385.644531 635.558594 386.003906 636.128906 C 386.175781 636.410156 386.308594 636.628906 386.394531 636.773438 C 386.476562 636.925781 386.511719 636.988281 386.519531 636.988281 L 387.859375 636.253906 " fill-opacity="1" fill-rule="nonzero"/><path fill="#f0aa66" d="M 352.179688 640.691406 C 352.183594 640.699219 354.316406 640.800781 357.683594 640.800781 C 363.558594 640.800781 373.191406 640.480469 381.9375 638.714844 C 386.308594 637.835938 390.453125 636.589844 393.820312 634.808594 C 397.179688 633.03125 399.792969 630.695312 400.914062 627.578125 L 399.46875 627.058594 C 398.539062 629.664062 396.277344 631.773438 393.109375 633.457031 C 388.359375 635.972656 381.671875 637.445312 375.097656 638.265625 C 368.519531 639.085938 362.042969 639.265625 357.683594 639.265625 C 356.011719 639.265625 354.652344 639.242188 353.710938 639.210938 C 352.773438 639.1875 352.257812 639.164062 352.25 639.164062 L 352.179688 640.699219 " fill-opacity="1" fill-rule="nonzero"/></svg>