<svg xmlns="http://www.w3.org/2000/svg" xmlns:xlink="http://www.w3.org/1999/xlink" width="1080" zoomAndPan="magnify" viewBox="0 0 810 809.999993" height="1080" preserveAspectRatio="xMidYMid meet" version="1.0"><path fill="#68bd45" d="M 597.6875 192.699219 C 591.050781 208.613281 582.640625 223.527344 572.457031 237.445312 C 569.699219 234.671875 566.871094 231.972656 563.976562 229.339844 C 561.085938 226.707031 558.125 224.148438 555.105469 221.664062 C 552.085938 219.179688 549.003906 216.769531 545.863281 214.4375 C 542.726562 212.105469 539.527344 209.851562 536.277344 207.679688 C 533.027344 205.503906 529.722656 203.414062 526.367188 201.402344 C 523.011719 199.390625 519.609375 197.464844 516.15625 195.625 C 512.707031 193.78125 509.210938 192.027344 505.675781 190.359375 C 502.136719 188.691406 498.558594 187.109375 494.945312 185.621094 C 491.328125 184.128906 487.675781 182.726562 483.992188 181.417969 C 480.304688 180.105469 476.589844 178.886719 472.84375 177.761719 C 469.097656 176.636719 465.328125 175.601562 461.53125 174.664062 C 457.734375 173.722656 453.914062 172.878906 450.078125 172.128906 C 446.238281 171.378906 442.382812 170.722656 438.511719 170.164062 C 434.640625 169.605469 430.757812 169.140625 426.863281 168.777344 C 422.96875 168.410156 419.066406 168.140625 415.160156 167.964844 C 411.253906 167.792969 407.34375 167.714844 403.433594 167.734375 C 399.519531 167.753906 395.613281 167.871094 391.707031 168.085938 C 387.800781 168.300781 383.902344 168.609375 380.011719 169.019531 C 376.121094 169.425781 372.246094 169.929688 368.378906 170.527344 C 364.511719 171.125 360.664062 171.820312 356.835938 172.609375 C 353.003906 173.398438 349.195312 174.285156 345.40625 175.261719 C 341.621094 176.242188 337.859375 177.3125 334.125 178.476562 C 330.390625 179.644531 326.6875 180.898438 323.015625 182.25 C 319.34375 183.597656 315.710938 185.035156 312.109375 186.5625 C 308.507812 188.09375 304.949219 189.710938 301.429688 191.414062 C 297.90625 193.121094 294.429688 194.910156 291 196.789062 C 287.570312 198.664062 284.183594 200.625 280.851562 202.671875 C 277.515625 204.714844 274.234375 206.839844 271.003906 209.050781 C 267.777344 211.257812 264.605469 213.542969 261.488281 215.90625 C 258.371094 218.273438 255.316406 220.710938 252.324219 223.226562 C 249.328125 225.746094 246.398438 228.332031 243.53125 230.996094 C 240.664062 233.65625 237.863281 236.386719 235.132812 239.1875 C 232.402344 241.984375 229.742188 244.851562 227.152344 247.785156 C 224.5625 250.714844 222.046875 253.710938 219.609375 256.765625 C 217.167969 259.824219 214.804688 262.9375 212.515625 266.109375 C 210.230469 269.285156 208.023438 272.511719 205.894531 275.796875 C 203.769531 279.078125 201.726562 282.414062 199.765625 285.796875 C 197.804688 289.179688 195.925781 292.609375 194.136719 296.089844 C 192.34375 299.566406 190.640625 303.085938 189.023438 306.644531 C 187.40625 310.207031 185.878906 313.808594 184.4375 317.445312 C 183 321.082031 181.652344 324.753906 180.394531 328.457031 C 179.136719 332.160156 177.972656 335.894531 176.902344 339.65625 C 175.832031 343.417969 174.851562 347.203125 173.96875 351.011719 C 173.085938 354.824219 172.292969 358.652344 171.601562 362.503906 C 170.90625 366.351562 170.308594 370.214844 169.804688 374.09375 C 169.300781 377.972656 168.894531 381.863281 168.585938 385.761719 C 168.273438 389.660156 168.058594 393.566406 167.945312 397.476562 C 167.828125 401.386719 167.808594 405.296875 167.882812 409.207031 C 167.960938 413.117188 168.132812 417.023438 168.40625 420.925781 C 168.675781 424.828125 169.042969 428.722656 169.503906 432.605469 C 169.96875 436.488281 170.527344 440.359375 171.183594 444.214844 C 171.839844 448.070312 172.589844 451.910156 173.433594 455.726562 C 174.28125 459.546875 175.21875 463.34375 176.253906 467.117188 C 177.285156 470.886719 178.410156 474.632812 179.628906 478.347656 C 180.851562 482.066406 182.160156 485.75 183.5625 489.402344 C 184.964844 493.054688 186.453125 496.667969 188.035156 500.246094 C 189.617188 503.824219 191.285156 507.359375 193.039062 510.855469 C 194.796875 514.351562 196.636719 517.800781 198.5625 521.207031 C 200.492188 524.609375 202.5 527.964844 204.59375 531.269531 C 206.6875 534.574219 208.859375 537.824219 211.113281 541.019531 C 213.367188 544.214844 215.699219 547.355469 218.109375 550.4375 C 220.519531 553.515625 223.003906 556.535156 225.5625 559.496094 C 228.121094 562.453125 230.753906 565.347656 233.457031 568.171875 C 236.15625 571 238.929688 573.761719 241.769531 576.449219 L 250.519531 584.175781 C 254.667969 587.671875 258.933594 591.023438 263.3125 594.226562 C 267.695312 597.429688 272.179688 600.480469 276.769531 603.375 C 281.359375 606.269531 286.042969 609.003906 290.820312 611.574219 C 295.597656 614.148438 300.460938 616.554688 305.402344 618.792969 C 310.347656 621.03125 315.359375 623.097656 320.445312 624.988281 C 325.53125 626.882812 330.675781 628.601562 335.878906 630.140625 C 341.082031 631.679688 346.332031 633.039062 351.628906 634.21875 C 356.925781 635.398438 362.257812 636.390625 367.625 637.203125 C 372.988281 638.015625 378.375 638.644531 383.785156 639.085938 C 389.191406 639.527344 394.609375 639.78125 400.035156 639.851562 C 405.460938 639.917969 410.882812 639.800781 416.300781 639.5 C 421.71875 639.195312 427.121094 638.707031 432.503906 638.03125 C 437.890625 637.355469 443.246094 636.496094 448.570312 635.453125 C 453.894531 634.40625 459.179688 633.183594 464.417969 631.777344 C 469.660156 630.367188 474.847656 628.785156 479.976562 627.019531 C 485.109375 625.257812 490.175781 623.320312 495.175781 621.207031 C 500.171875 619.09375 505.09375 616.8125 509.933594 614.363281 C 514.777344 611.914062 519.527344 609.300781 524.191406 606.523438 C 528.851562 603.746094 533.414062 600.8125 537.875 597.71875 C 542.335938 594.628906 546.683594 591.390625 550.921875 588 C 555.160156 584.609375 559.273438 581.078125 563.269531 577.40625 C 567.261719 573.730469 571.128906 569.925781 574.859375 565.988281 C 578.59375 562.050781 582.1875 557.988281 585.640625 553.800781 C 589.09375 549.617188 592.398438 545.316406 595.554688 540.902344 C 598.714844 536.488281 601.714844 531.972656 604.5625 527.355469 C 607.410156 522.734375 610.09375 518.023438 612.617188 513.21875 C 615.140625 508.414062 617.496094 503.527344 619.683594 498.5625 C 621.871094 493.597656 623.886719 488.558594 625.726562 483.457031 C 627.566406 478.351562 629.230469 473.1875 630.714844 467.96875 C 632.203125 462.75 633.507812 457.488281 634.628906 452.179688 C 635.753906 446.867188 636.695312 441.527344 637.449219 436.15625 C 638.207031 430.78125 638.777344 425.386719 639.164062 419.976562 C 645.621094 359.691406 627.917969 283.390625 597.695312 192.707031 Z M 275.453125 577.824219 C 275.035156 578.339844 274.59375 578.832031 274.128906 579.304688 C 273.660156 579.777344 273.175781 580.226562 272.664062 580.648438 C 272.15625 581.074219 271.625 581.472656 271.074219 581.84375 C 270.527344 582.214844 269.960938 582.5625 269.378906 582.878906 C 268.796875 583.195312 268.199219 583.480469 267.585938 583.738281 C 266.976562 583.996094 266.355469 584.226562 265.71875 584.421875 C 265.085938 584.617188 264.445312 584.785156 263.796875 584.917969 C 263.144531 585.050781 262.492188 585.152344 261.832031 585.222656 C 261.171875 585.292969 260.511719 585.328125 259.847656 585.332031 C 259.183594 585.335938 258.523438 585.308594 257.859375 585.25 C 257.199219 585.1875 256.542969 585.09375 255.894531 584.96875 C 255.242188 584.84375 254.597656 584.6875 253.960938 584.5 C 253.328125 584.3125 252.699219 584.089844 252.085938 583.84375 C 251.472656 583.59375 250.871094 583.3125 250.285156 583.003906 C 249.699219 582.695312 249.128906 582.359375 248.574219 581.992188 C 248.019531 581.628906 247.484375 581.238281 246.96875 580.820312 C 246.453125 580.402344 245.960938 579.960938 245.488281 579.492188 C 245.015625 579.027344 244.566406 578.539062 244.144531 578.03125 C 243.71875 577.519531 243.320312 576.988281 242.949219 576.441406 C 242.578125 575.890625 242.234375 575.324219 241.917969 574.742188 C 241.601562 574.160156 241.3125 573.5625 241.054688 572.953125 C 240.796875 572.339844 240.570312 571.71875 240.375 571.085938 C 240.179688 570.449219 240.011719 569.808594 239.878906 569.160156 C 239.746094 568.507812 239.644531 567.855469 239.578125 567.195312 C 239.507812 566.535156 239.46875 565.875 239.464844 565.210938 C 239.460938 564.546875 239.492188 563.886719 239.550781 563.226562 C 239.613281 562.5625 239.707031 561.910156 239.832031 561.257812 C 239.957031 560.605469 240.113281 559.960938 240.300781 559.324219 C 240.492188 558.691406 240.710938 558.066406 240.960938 557.449219 C 241.210938 556.835938 241.492188 556.234375 241.800781 555.648438 C 242.109375 555.0625 242.445312 554.492188 242.8125 553.9375 C 243.175781 553.382812 243.566406 552.851562 243.984375 552.335938 C 244.402344 551.820312 244.84375 551.324219 245.3125 550.855469 C 245.777344 550.382812 246.265625 549.933594 246.777344 549.511719 C 247.285156 549.085938 247.816406 548.6875 248.367188 548.316406 C 248.914062 547.945312 249.480469 547.601562 250.0625 547.285156 C 250.648438 546.96875 251.246094 546.683594 251.855469 546.425781 C 252.46875 546.167969 253.089844 545.941406 253.722656 545.746094 C 254.355469 545.546875 255 545.382812 255.648438 545.25 C 256.296875 545.117188 256.953125 545.015625 257.613281 544.949219 C 258.273438 544.878906 258.933594 544.84375 259.597656 544.839844 C 260.261719 544.835938 260.921875 544.863281 261.582031 544.925781 C 262.242188 544.984375 262.898438 545.078125 263.550781 545.203125 C 264.203125 545.332031 264.847656 545.488281 265.480469 545.675781 C 266.117188 545.867188 266.742188 546.085938 267.355469 546.335938 C 267.972656 546.585938 268.570312 546.867188 269.15625 547.175781 C 269.746094 547.484375 270.316406 547.824219 270.867188 548.1875 C 271.421875 548.554688 271.957031 548.945312 272.472656 549.363281 C 272.984375 549.78125 273.480469 550.222656 273.949219 550.6875 C 274.421875 551.152344 274.867188 551.640625 275.292969 552.152344 C 275.714844 552.660156 276.113281 553.191406 276.484375 553.738281 C 276.855469 554.289062 277.199219 554.855469 277.515625 555.4375 C 277.828125 556.019531 278.117188 556.617188 278.375 557.226562 C 278.628906 557.835938 278.855469 558.457031 279.054688 559.089844 C 279.25 559.722656 279.414062 560.367188 279.546875 561.015625 C 279.679688 561.664062 279.78125 562.316406 279.851562 562.976562 C 279.921875 563.636719 279.957031 564.296875 279.960938 564.957031 C 279.964844 565.621094 279.9375 566.28125 279.875 566.941406 C 279.816406 567.601562 279.722656 568.257812 279.597656 568.90625 C 279.472656 569.558594 279.316406 570.203125 279.128906 570.835938 C 278.9375 571.472656 278.71875 572.097656 278.46875 572.710938 C 278.222656 573.324219 277.941406 573.925781 277.632812 574.511719 C 277.324219 575.097656 276.988281 575.667969 276.625 576.21875 C 276.261719 576.773438 275.871094 577.308594 275.453125 577.824219 Z M 596.714844 506.914062 C 538.273438 584.757812 413.496094 558.492188 333.496094 562.269531 C 333.496094 562.269531 319.3125 563.101562 305.035156 565.441406 C 305.035156 565.441406 310.421875 563.152344 317.304688 560.550781 C 373.488281 540.996094 400.042969 537.230469 434.171875 519.671875 C 498.425781 487.003906 561.988281 415.464844 575.195312 341.101562 C 550.75 412.640625 476.519531 474.15625 408.949219 499.144531 C 362.640625 516.210938 278.980469 532.835938 278.980469 532.835938 L 275.609375 531.027344 C 218.6875 503.355469 216.929688 380.078125 320.449219 340.320312 C 365.777344 322.863281 409.144531 332.445312 458.09375 320.765625 C 510.367188 308.347656 570.84375 269.1875 595.453125 218.082031 C 622.972656 299.839844 656.136719 427.804688 596.675781 506.964844 Z M 596.714844 506.914062 " fill-opacity="1" fill-rule="nonzero"/></svg>